<svg xmlns="http://www.w3.org/2000/svg" width="614" height="382" viewBox="9 7 614 382">
<path d="M345.5 176 C347.5 176.67 349.4 177.86 351.5 178 C352.21 178.05 352.73 177.15 353 176.5 C367.04 142.64 356.44 171.18 360 144.5 C360.12 143.57 362.82 142.96 362 142.5 C360.1 141.44 357.41 140.96 355.5 142 C353.19 143.26 352.5 150.67 351 148.5 C348.53 144.94 350.45 139.8 351 135.5 C351.79 129.4 352.14 122.94 355 117.5 C355.94 115.71 359.42 115.23 361 116.5 C365.12 119.79 367.49 124.87 370 129.5 C372.45 134.03 373.86 146.64 377.5 143 C379.04 141.46 376.98 138.42 378 136.5 C378.7 135.18 381.33 135.83 382 134.5 C382.89 132.71 381.47 130.43 382 128.5 C382.51 126.62 385 125.44 385 123.5 C385 122.09 382.16 121.91 382 120.5 C381.6 116.88 385.91 110.63 389.5 110 C390.89 109.75 391.1 113.2 392.5 113 C394.37 112.73 394.63 108.73 396.5 109 C397.99 109.21 395.25 112.19 396 113.5 C396.85 114.99 399.04 116.9 400.5 116 C404.34 113.64 408.5 109.98 409 105.5 C409.28 102.98 403.73 104.36 402 102.5 C397.42 97.59 392.66 86.45 392 79.5 C391.68 76.17 391.6 72.54 393 69.5 C393.81 67.74 397.23 68.29 398 66.5 C398.59 65.13 396.12 63.99 396 62.5 C395.78 59.82 396 57 397 54.5 C398.72 50.2 401.14 46.14 404 42.5 C406.04 39.9 408.27 36.71 411.5 36 C418.66 34.42 426.23 36.95 433.5 36 C434.55 35.86 433.47 32.79 434.5 33 C436.35 33.37 436.84 36.11 438.5 37 C442.19 38.99 452.4 42.46 451 38.5 C448.98 32.79 446 27.06 441.5 23 C435.51 17.6 428.05 13.83 420.5 11 C396.22 1.9 419.77 15.14 404.5 18 C400.67 18.72 397.4 13.79 393.5 14 C390.36 14.17 387.85 16.91 385.5 19 C365.97 36.42 381.9 23.5 371 46.5 C370.17 48.26 367.04 47.86 366 49.5 C365.19 50.77 368.99 50 370.5 50 C377.53 50 384.67 50.33 391.5 52 C392.73 52.3 393.16 54.24 393 55.5 C392.79 57.2 392.08 59.34 390.5 60 C386.46 61.7 381.68 63.31 377.5 62 C375.08 61.24 376.99 55.5 374.5 55 C372.43 54.59 373.99 59.51 372.5 61 C366.46 67.04 365.43 52.8 364 60.5 C363.33 64.11 363.06 67.96 364 71.5 C364.49 73.32 367.72 73.64 368 75.5 C368.79 80.78 368.37 86.33 367 91.5 C361.58 111.91 351.11 85.81 347 100.5 C346.01 104.05 347.06 112.32 350.5 111 C352.49 110.23 352.38 105.76 354.5 106 C356.33 106.2 355.65 109.78 355 111.5 C353.72 114.87 350.29 117.13 349 120.5 C348.51 121.78 350.29 123.16 350 124.5 C347.59 135.64 343.37 146.35 341 157.5 C337.86 172.25 337.38 169.35 345.5 176Z M448.5 47 C447.33 49.5 444.85 51.74 445 54.5 C445.08 55.99 448.12 55.3 449 56.5 C450.57 58.64 448.7 64.27 453.5 62 C457.49 60.11 463.04 57.78 459 52.5 C453.09 44.77 452.72 53.33 448.5 47Z M464 96.5 C457.31 84.08 459.26 91.37 450.5 94 C442 96.55 448.3 86 441.5 86 C438.86 86 436.04 86.83 434 88.5 C433.27 89.1 436.2 89.58 436 90.5 C435.42 93.12 432.42 94.85 432 97.5 C431.49 100.73 438.44 98.82 441.5 100 C443.93 100.93 445.05 105.89 447.5 105 C450.73 103.83 449.38 97.44 452.5 96 C455.09 94.81 457.65 98.88 460.5 99 C461.93 99.06 462.83 97.33 464 96.5Z M335 207.5 C341.71 214.21 333.83 208 339.5 208 C342.57 208 345.43 209.85 348.5 210 C352.18 210.18 355.96 207.99 359.5 209 C361.37 209.53 360.56 213.84 362.5 214 C365.77 214.27 368.3 210.75 371.5 210 C374.1 209.39 376.99 210.9 379.5 210 C396.63 203.88 401.98 199.88 412 185.5 C412.43 184.89 410.6 184.13 411 183.5 C412.5 181.1 415.63 179.97 417 177.5 C417.51 176.58 415.46 175.41 416 174.5 C420 167.73 425.76 162.13 430 155.5 C431.14 153.72 430.59 151.07 432 149.5 C433.8 147.5 437.58 147.78 439 145.5 C439.86 144.12 433.49 139.67 438.5 138 C439.14 137.79 442.39 142.38 443 138.5 C443.42 135.87 441.32 132.57 443 130.5 C462.23 106.75 442.18 148.1 457 122.5 C457.95 120.86 456.94 115.76 455.5 117 C452.98 119.18 452.61 123.8 449.5 125 C447.78 125.66 448.48 121.27 449 119.5 C449.4 118.14 452.6 117.78 452 116.5 C450.89 114.11 447.95 111.02 445.5 112 C441.94 113.43 440.43 125.06 439 121.5 C438.25 119.62 440.3 117.5 440 115.5 C439.45 111.85 440.13 105.64 436.5 105 C433.12 104.4 434.82 113.12 431.5 114 C408.85 120.04 433.69 93.63 413 116.5 C406.97 123.17 418.49 115.36 415 123.5 C414.41 124.89 411.79 122.22 410.5 123 C408.07 124.46 404.88 126.66 405 129.5 C405.11 132.1 410.74 131.91 411 134.5 C411.82 142.74 402.17 135.84 406 143.5 C406.84 145.19 411.05 145.93 410 147.5 C408.48 149.79 402.45 146.79 402 149.5 C401.56 152.15 410.2 151.1 409 153.5 C407.48 156.54 400.41 152.41 399 155.5 C397.86 158.01 403.82 158.33 406.5 159 C407.96 159.37 410.52 157.07 411 158.5 C411.73 160.7 410.74 164.39 408.5 165 C407.94 165.15 403.29 151.49 399 161.5 C398.29 163.15 403.7 161.73 404 163.5 C404.31 165.36 400.78 165.78 400 167.5 C399.71 168.14 400.8 168.91 401.5 169 C403.66 169.27 406.98 166.58 408 168.5 C409.44 171.22 408.32 175.49 406 177.5 C401.64 181.28 400.63 169.62 398 177.5 C397.83 178 396.09 184.41 396 184.5 C394.51 185.99 391.08 184.69 390 186.5 C389.27 187.71 393.28 188.11 393 189.5 C392.71 190.96 389.92 190.32 389 191.5 C388.48 192.17 390.31 193.73 389.5 194 C387.89 194.54 386.19 192.87 384.5 193 C380.45 193.31 385.01 196.47 385 196.5 C378.43 210.96 382.99 194.88 377.5 199 C376.4 199.82 377.76 202.44 376.5 203 C374.06 204.08 371.09 202.35 368.5 203 C366.88 203.4 366.17 206 364.5 206 C362.83 206 362.17 203 360.5 203 C359.45 203 360.52 205.74 359.5 206 C358.33 206.29 357.7 204 356.5 204 C355.3 204 354.68 206.24 353.5 206 C352.32 205.76 352.64 202.62 351.5 203 C348.01 204.16 354.42 212.82 345.5 206 C343.77 204.68 342.56 202.6 342 200.5 C341.18 197.44 344.22 192.63 341.5 191 C339.24 189.64 337.31 194.88 337 197.5 C335.53 209.75 346.92 197.96 335 207.5Z M388.5 143 C390.67 140.17 393.54 137.75 395 134.5 C395.82 132.67 394.19 130.33 395 128.5 C395.68 126.98 398.19 126.96 399 125.5 C400.4 122.98 399.61 115.05 397.5 117 C393.12 121.05 389.8 126.23 387 131.5 C382.36 140.23 383.59 139.49 388.5 143Z M229.5 128 C225.07 128.74 219.75 128.75 217 133.5 C212.66 141 208.07 148.9 207 157.5 C206.71 159.82 214.95 155.37 214 157.5 C210.83 164.64 202.55 168.54 199 175.5 C197.69 178.06 197.81 182.97 200.5 184 C202.93 184.93 202.99 178.69 205.5 178 C207.66 177.41 209.27 181.1 211.5 181 C213.67 180.91 214.83 177.5 217 177.5 C220.8 177.5 209.63 181.07 208 184.5 C207.51 185.53 218.74 198.59 204.5 196 C200.55 195.28 199.84 184.77 196.5 187 C189.42 191.72 196.67 192.78 196 197.5 C195.83 198.69 192.91 198.3 193 199.5 C193.15 201.39 196.71 202.11 196.5 204 C196.25 206.22 192.74 201 190.5 201 C189.09 201 188.88 203.69 187.5 204 C185.52 204.44 183.34 202.15 181.5 203 C178.5 204.38 177.23 208.14 174.5 210 C172.93 211.07 169.6 209.7 169 211.5 C168.4 213.3 174.25 216.75 172.5 216 C169.68 214.79 168.14 211.58 165.5 210 C162.63 208.28 159.25 212.48 159 214.5 C158.05 222.1 164.71 215.64 165.5 216 C168.5 217.37 169.48 221.68 172.5 223 C175.25 224.2 178.57 222.35 181.5 223 C182.15 223.14 182.15 224.86 181.5 225 C176.93 225.98 172.12 225.26 167.5 226 C162.79 226.76 171.98 233.37 168.5 231 C164.58 228.34 161.71 224.18 157.5 222 C156.37 221.42 154.08 222.23 154 223.5 C153.76 227.13 161.02 234.28 163.5 235 C166.4 235.84 169.52 233.5 172.5 234 C173.89 234.23 174.11 236.72 175.5 237 C176.42 237.18 176.56 235 177.5 235 C178.99 235 180.04 237.29 181.5 237 C182.53 236.79 181.52 234.39 182.5 234 C183.78 233.49 185.2 235.43 186.5 235 C187.64 234.62 188.04 230.89 188.5 232 C189.97 235.57 188.07 240.15 190 243.5 C191.57 246.23 200.22 246.28 198 248.5 C194.82 251.68 188.95 248.28 184.5 249 C183.57 249.15 183.44 250.92 182.5 251 C179.16 251.28 175.23 251.95 172.5 250 C169.83 248.09 166.18 243.32 168.5 241 C170.72 238.78 173.64 244.7 176.5 246 C186.37 250.49 172.13 241.44 181.5 243 C181.81 243.05 190 254.46 190 242.5 C190 232.82 179.92 241.22 178.5 241 C175.93 240.6 175.07 236.43 172.5 236 C170.29 235.63 168.73 239.15 166.5 239 C163.22 238.78 160.75 235.46 157.5 235 C156.54 234.86 155.6 236.62 156 237.5 C156.69 239.02 160.4 238.88 160 240.5 C158.58 246.16 150.99 243.04 155 248.5 C164.77 261.82 155.82 250.25 161.5 250 C164.77 249.86 168.48 250.4 171 252.5 C172.1 253.42 168.9 254.7 167.5 255 C164.89 255.57 162.09 255.65 159.5 255 C157.88 254.6 157.17 252 155.5 252 C154.09 252 153.83 255.49 152.5 255 C149.62 253.94 147.73 251.03 146 248.5 C145.44 247.67 146.79 246.11 146 245.5 C139.08 240.12 143.09 252.07 138 240.5 C135.39 234.57 138.02 231.26 131.5 228 C130.87 227.68 129.97 228.79 130 229.5 C130.15 233.22 130.23 237.22 132 240.5 C132.69 241.79 144.79 242.55 136.5 249 C134.74 250.37 130.25 245.29 130 247.5 C129.87 248.69 131.06 249.75 132 250.5 C135.95 253.63 139.78 257.24 144.5 259 C148.57 260.52 154.35 257 157.5 260 C162.63 264.89 162.67 273.24 166 279.5 C166.89 281.16 169.51 281.68 170 283.5 C170.94 287.04 168.98 290.98 170 294.5 C170.59 296.54 172.41 298.65 174.5 299 C175.75 299.21 176.36 296.72 176 295.5 C175.4 293.45 171.44 292.56 172 290.5 C172.48 288.72 176.35 288.56 177.5 290 C179.75 292.81 178.56 297.2 180 300.5 C181.85 304.73 185.17 307.13 189.5 308 C192.78 308.66 196.32 310.06 199.5 309 C216.65 303.28 232.65 294.55 249.5 288 C250.74 287.52 252.27 287.47 253.5 288 C266.08 293.39 260.52 297.09 275.5 293 C277.33 292.5 280.97 291.14 280 289.5 C276.17 283 268.88 279.25 264 273.5 C259.51 268.21 255.48 262.5 252 256.5 C251.63 255.85 253.47 255.08 253 254.5 C251.79 252.98 248.4 253.4 248 251.5 C243.21 228.49 251.6 231.4 253 208.5 C253.09 207.07 250.86 205.55 249.5 206 C247.48 206.67 247.63 211 245.5 211 C243.14 211 242.83 205.63 240.5 206 C233.28 207.16 226.81 211.32 220.5 215 C217.51 216.75 217.48 222.68 212.5 220 C211.72 219.58 207.94 213.87 209 212.5 C210.93 210.02 214.99 209.92 217 207.5 C217.92 206.4 213.19 204.59 214.5 204 C227.46 198.11 212.78 208.82 218.5 208 C221.63 207.55 225.2 207.17 227.5 205 C244.4 189.12 229.94 190.66 225 177.5 C224.15 175.23 227.74 172.81 227 170.5 C225.23 164.94 220.5 160.77 218 155.5 C217.43 154.3 217.1 152.48 218 151.5 C224.07 144.88 232.65 145.24 233 134.5 C233.08 132.04 230.67 130.17 229.5 128Z M466 146.5 C464.17 143.33 463.3 139.35 460.5 137 C458.7 135.48 455.83 135.63 453.5 136 C451.42 136.33 449.66 141.02 450 142.5 C450.48 144.58 456.42 147.14 457.5 147 C458.9 146.82 459.1 143.8 460.5 144 C468.38 145.13 461.9 150.6 466 146.5Z M256.5 150 C254.83 152.67 254.08 156.2 251.5 158 C250.11 158.97 248.02 156.24 246.5 157 C244.17 158.16 243.88 161.94 241.5 163 C239.82 163.75 234.86 161.06 236 162.5 C238.49 165.65 242.8 167.14 245 170.5 C246.19 172.32 243.43 177.65 245.5 177 C251.64 175.08 257.95 171.16 261 165.5 C262.49 162.73 256.71 160.56 256 157.5 C252.31 141.51 262.2 159.5 256.5 150Z M461.5 174 C470.13 165.37 462.33 175.48 461 167.5 C460.18 162.56 463.97 157.11 462 152.5 C460.84 149.79 456.4 149.42 453.5 150 C451.95 150.31 451.33 153.07 452 154.5 C452.82 156.26 455.92 155.88 457 157.5 C458.75 160.13 459.58 163.37 460 166.5 C461.11 174.82 456.17 170.8 461.5 174Z M174.5 183 C177.33 181.17 180.72 179.99 183 177.5 C184.57 175.79 183.46 172.1 185.5 171 C186.97 170.21 187.89 174.42 189.5 174 C193.21 173.04 196.71 170.58 199 167.5 C200.83 165.03 199.79 161.32 201 158.5 C202.04 156.08 205.96 150.05 203.5 151 C201.3 151.85 200.77 155.35 198.5 156 C197.45 156.3 195.4 146.94 193 155.5 C191.81 159.76 192.63 169.59 188.5 168 C186.82 167.36 188.11 163.8 186.5 163 C183.02 161.26 182.31 169.43 180 162.5 C179.31 160.44 181.24 157.3 179.5 156 C178.18 155.01 176.62 157.97 176 159.5 C174.06 164.3 172.33 169.34 172 174.5 C171.81 177.45 173.67 180.17 174.5 183Z M364.5 183 C366.17 182.67 368.13 183.01 369.5 182 C386.17 169.68 369.85 179.99 374 166.5 C374.77 164.01 378.88 163.85 380 161.5 C380.94 159.54 381.65 155.31 379.5 155 C377.29 154.68 378.58 160.17 376.5 161 C375.12 161.55 375.71 157.87 374.5 157 C373.92 156.59 373.18 157.82 373 158.5 C372.32 161.1 372.9 163.97 372 166.5 C371.19 168.76 368.76 170.22 368 172.5 C367.67 173.5 369.51 174.58 369 175.5 C364.36 183.86 360.54 179.04 364.5 183Z M415.5 383 C417.67 380.17 421.75 378.06 422 374.5 C422.64 365.42 418 356.6 418 347.5 C418 346.17 421.23 346.41 422 347.5 C424.8 351.47 424.06 357.56 427.5 361 C428.84 362.34 431.46 359.32 432 357.5 C432.51 355.78 430 354.3 430 352.5 C430 332.23 435.96 370.39 429 349.5 C428.7 348.61 431.43 348.34 431 347.5 C427.61 340.88 423.91 334.11 418.5 329 C417.03 327.61 414.52 330.2 412.5 330 C411.02 329.85 409.87 327.41 408.5 328 C406.71 328.77 407.39 332.53 405.5 333 C403.61 333.47 402.24 329.13 400.5 330 C398.69 330.91 401.52 335.82 399.5 336 C394.14 336.49 388.32 334.71 384 331.5 C382.13 330.11 383.34 326.74 384 324.5 C385.9 318.02 390.61 331.96 391 321.5 C391.13 318.1 390.83 314.37 389 311.5 C388.09 310.07 385.02 311.86 384 310.5 C383.28 309.54 386.15 308.69 386 307.5 C385.76 305.57 383.1 304.44 383 302.5 C382.91 300.79 384.17 299.09 385.5 298 C387.98 295.97 394.9 296.58 394 293.5 C392.9 289.76 379.12 289.88 383 289.5 C391.83 288.65 400.64 292.51 409.5 292 C412.7 291.82 416.41 290.28 418 287.5 C418.85 286.01 415.21 285.11 413.5 285 C406.54 284.54 415.28 292.05 405.5 286 C403.3 284.64 399.44 283.03 400 280.5 C401.49 273.78 413.93 280.96 420.5 283 C421.18 283.21 422.5 282 422 281.5 C419.12 278.62 414.44 277.76 412 274.5 C410.98 273.14 413.68 271.06 413 269.5 C411.18 265.35 407.08 262.53 405 258.5 C404.46 257.45 404.47 255.57 405.5 255 C408.02 253.6 412.29 255.81 414 253.5 C415.98 250.82 414.65 246.77 414 243.5 C413.3 239.98 407.46 236.04 410 233.5 C412.34 231.16 413.85 239.02 416.5 241 C417.07 241.42 417.75 240.16 418 239.5 C419.95 234.26 422.17 229.03 423 223.5 C423.22 222.03 420.62 220.94 421 219.5 C423.04 211.76 427.87 214.48 433.5 213 C437.23 212.02 430.4 204.95 434.5 207 C436.19 207.84 436.78 210.22 438.5 211 C440.65 211.98 443.35 211.04 445.5 212 C446.6 212.49 446.31 215.13 447.5 215 C448.92 214.84 450.2 212.92 450 211.5 C449.35 206.94 440.12 206.92 438.5 206 C436.04 204.6 435.28 199.49 432.5 200 C429.41 200.56 430 206.09 427.5 208 C426.49 208.77 423.7 207.73 424 206.5 C425.48 200.41 431.28 195.72 432 189.5 C432.27 187.15 428.68 185.93 426.5 185 C425.85 184.72 424.78 185.83 425 186.5 C425.6 188.3 429.48 189.37 428.5 191 C427.58 192.54 424.9 187.88 423.5 189 C421.94 190.25 425.21 193.97 423.5 195 C421.83 196 420.39 192.44 418.5 192 C417.81 191.84 416.9 192.8 417 193.5 C417.28 195.49 420.54 197.27 419.5 199 C418.64 200.43 416.8 194.96 415.5 196 C413.66 197.47 416.34 201.53 414.5 203 C413.2 204.04 411.93 199.14 410.5 200 C408.76 201.04 410.93 204.57 409.5 206 C408.65 206.85 407.53 203.38 406.5 204 C404.96 204.92 405.87 207.84 404.5 209 C403.35 209.97 401.07 208.43 400 209.5 C399.17 210.33 401.58 212.54 400.5 213 C399.13 213.59 397.91 210.53 396.5 211 C395.09 211.47 395.78 214.23 394.5 215 C393.6 215.54 392.25 213.25 391.5 214 C390.01 215.49 391.44 219.17 389.5 220 C387.71 220.77 386.34 216.39 384.5 217 C382.89 217.54 384.7 220.8 383.5 222 C382.75 222.75 381.48 220.61 380.5 221 C379.38 221.45 379.69 223.8 378.5 224 C377.03 224.25 375.93 221.59 374.5 222 C372.9 222.46 372.68 227.18 371.5 226 C368.44 222.94 370.41 215.87 366.5 214 C363.74 212.68 360.89 217.57 360 220.5 C358.56 225.23 369.36 225.94 362.5 232 C360.48 233.78 357.06 233.81 354.5 233 C350.36 231.69 347.59 227.46 343.5 226 C342.37 225.6 341.55 228.58 340.5 228 C337.81 226.51 337.25 222.37 334.5 221 C332.69 220.09 330.13 220.8 328.5 222 C323.57 225.64 321.6 235.63 315.5 235 C309.45 234.37 316.65 208.49 317 207.5 C321.97 193.34 319.19 212.12 330 197.5 C331.4 195.6 328.47 192.8 329 190.5 C329.54 188.16 332.48 186.85 333 184.5 C334.53 177.64 335.69 170.5 335 163.5 C334.79 161.39 332.62 159 330.5 159 C328.13 159 326.33 161.54 325 163.5 C322.74 166.83 322.58 171.41 320 174.5 C318.91 175.81 316.02 174.14 315 175.5 C314.28 176.46 317.58 177.44 317 178.5 C315.19 181.81 310.99 183.29 309 186.5 C308.49 187.33 309.53 189.11 310.5 189 C311.91 188.84 312.15 186.41 313.5 186 C319.5 184.2 322.13 185.43 323 191.5 C323.21 192.99 319.99 190.79 318.5 191 C317.21 191.18 314.06 196.05 311.5 194 C310.34 193.07 310.96 190.29 309.5 190 C308.11 189.72 307.81 192.47 306.5 193 C305.81 193.28 305.21 191.76 304.5 192 C295.44 195.02 305.29 193.45 303 196.5 C301.16 198.96 297.3 199.72 296 202.5 C295.46 203.65 298.32 204.47 299.5 204 C302.14 202.95 304.26 200.74 306 198.5 C306.72 197.57 305.32 195 306.5 195 C316.99 195 317.32 201.47 313 209.5 C312.15 211.08 308.73 209.86 308 211.5 C307.04 213.65 310.14 216.44 309 218.5 C308.3 219.75 306.91 216.28 305.5 216 C304.81 215.86 303.92 216.8 304 217.5 C304.13 218.69 306 219.3 306 220.5 C306 222.93 302.82 225.38 304 227.5 C309.07 236.62 315.31 245.52 323.5 252 C327.2 254.92 333.54 251.44 337.5 254 C347.21 260.27 354.99 269.17 363 277.5 C363.59 278.11 363.34 279.87 362.5 280 C357.23 280.8 351.33 277.74 346.5 280 C342.77 281.74 336.71 288.03 340 290.5 C346.01 295.01 355.52 289.21 362.5 292 C367.97 294.19 375.9 298.68 375 304.5 C374.26 309.28 365.24 304.03 360.5 305 C352.96 306.55 345.7 309.28 338.5 312 C333.34 313.95 328.3 316.28 323.5 319 C322.29 319.69 317.39 323.89 320 326.5 C324.54 331.04 333.78 335.29 340.5 335 C340.56 335 336.65 312.94 343.5 318 C359.98 330.18 348.72 321.36 352 332.5 C353.71 338.32 356.1 331.97 359.5 335 C364.8 339.73 369.43 345.36 373 351.5 C373.85 352.97 371.72 354.82 372 356.5 C372.42 359 374.55 361 375 363.5 C375.9 368.43 374.97 373.6 376 378.5 C376.5 380.91 377.06 384.72 379.5 385 C391.44 386.36 403.5 383.67 415.5 383Z M453.5 160 C430 161.57 461.13 162.46 450.5 166 C448.12 166.79 444.46 164.46 443 166.5 C441.87 168.08 446.81 167.97 448 169.5 C448.43 170.06 447.2 171.11 446.5 171 C443.33 170.5 434.73 167.23 437 169.5 C439.01 171.51 446.34 175 443.5 175 C440.66 175 433.15 172.35 435 174.5 C439.55 179.81 447.58 183.9 454.5 178 C458.99 174.18 454.58 163.66 453.5 160Z M10 245.5 C12.17 247 13.89 249.63 16.5 250 C22.45 250.85 28.69 250.53 34.5 249 C41.57 247.14 47.59 242.39 54.5 240 C65.97 236.04 78.08 234.09 89.5 230 C112.38 221.8 104.16 220.8 124.5 207 C127.83 204.74 131.6 203.01 135.5 202 C137.28 201.54 135.64 205.69 136 207.5 C136.21 208.53 138.87 207.45 139 208.5 C139.06 208.97 133.09 220.1 141.5 218 C155.43 214.52 145.28 211.26 148 202.5 C152.22 188.91 152.56 202.19 157.5 199 C159.71 197.57 162.29 195.12 162 192.5 C161.02 183.65 148.25 197.23 148.5 195 C148.71 193.11 151.87 192.4 152 190.5 C152.09 189.09 149.53 188.81 149 187.5 C147.9 184.74 149.1 184.64 148 187.5 C147.32 189.27 146.2 192.85 144.5 192 C141.47 190.49 144.49 179.58 136.5 183 C135.05 183.62 134.56 185.98 135 187.5 C136.16 191.51 144.3 195.94 141 198.5 C137.6 201.14 134.78 190.59 130.5 191 C127.08 191.33 128.51 198.36 125.5 200 C123.54 201.07 121.67 196.48 119.5 197 C116.03 197.84 113.66 201.12 111 203.5 C106.92 207.15 115.38 205.09 113 210.5 C110.14 217.01 99.29 220.92 93 220.5 C91.34 220.39 97 219.17 97 217.5 C97 215.83 92.43 216.07 93 214.5 C94.29 210.96 98.94 209.66 101 206.5 C101.64 205.51 101.59 202.56 100.5 203 C95.62 204.99 92.17 209.56 87.5 212 C85.47 213.06 66.75 217.86 65.5 218 C63.48 218.22 61.51 216.75 59.5 217 C58.56 217.12 58.42 219.18 57.5 219 C56.11 218.72 55.87 215.66 54.5 216 C53.17 216.33 54.79 219.52 53.5 220 C47.79 222.1 41.02 220.45 35.5 223 C31.86 224.68 30.8 229.71 27.5 232 C22.97 235.15 16.87 235.63 12.5 239 C10.66 240.42 10.83 243.33 10 245.5Z M437 189.5 C443.77 200.78 432.45 183.76 441.5 191 C442.9 192.12 441.71 196.07 443.5 196 C447.45 195.84 450.1 189.85 454 190.5 C456.6 190.93 451.76 195.64 449.5 197 C446.69 198.68 439.21 196.32 440 199.5 C441.95 207.28 449.66 198.88 451.5 198 C453.8 196.9 457.2 198.3 459 196.5 C461.47 194.03 457.4 185.99 455.5 185 C452.82 183.61 449.43 183.29 446.5 184 C442.94 184.86 440.17 187.67 437 189.5Z M178 208.5 C180.83 210.67 183.12 213.87 186.5 215 C188.2 215.57 190.1 211.88 191.5 213 C212.46 229.77 165.05 209.16 198.5 219 C199.43 219.27 200.4 220.62 200 221.5 C199.31 223.02 195.47 222.92 196 224.5 C197.12 227.85 199.97 231.93 203.5 232 C209.94 232.13 215.2 226.32 221.5 225 C222.9 224.71 226.26 226.81 225 227.5 C220.63 229.88 215.14 229.22 210.5 231 C197.13 236.14 216.77 236.07 195.5 238 C194.76 238.07 193.93 236.48 194.5 236 C196.61 234.22 203.42 234.87 202 232.5 C196.18 222.8 186 216.5 178 208.5Z M495 225.5 C490.83 220.67 487.35 215.15 482.5 211 C480.32 209.13 484.79 216.73 484 219.5 C483.53 221.13 480.36 219.48 479 220.5 C478.4 220.95 480.2 221.78 480 222.5 C479.47 224.37 477.44 225.61 477 227.5 C476.84 228.19 477.92 229.4 478.5 229 C480.64 227.52 480.92 223.34 483.5 223 C500.71 220.7 489.67 230.83 495 225.5Z M324 238.5 C326.17 236 327.24 231.57 330.5 231 C334.25 230.34 338.62 232.53 341 235.5 C342.26 237.07 340.48 240.65 338.5 241 C333.67 241.85 328.83 239.33 324 238.5Z M463.5 265 C464.67 262.83 466.35 260.87 467 258.5 C469.64 248.82 460.25 234.25 461 254.5 C461.13 258.12 461.52 260.65 463.5 265Z M335.5 285 C338.12 280.89 341.13 279.63 337 275.5 C330.49 268.99 323.94 262.41 316.5 257 C315.71 256.43 314.42 258.72 315 259.5 C318.65 264.42 325.59 266.87 328 272.5 C329.96 277.07 320.82 265.47 316.5 263 C315.66 262.52 313.36 263.76 314 264.5 C320.47 271.99 328.33 278.17 335.5 285Z M521.5 257 C521 259.5 519.38 262.03 520 264.5 C521.14 269.06 522.93 273.94 526.5 277 C528.15 278.41 525.77 272.29 527 270.5 C528.26 268.65 533.71 269.62 533 267.5 C531.99 264.46 526.87 265.16 524.5 263 C522.85 261.49 522.5 259 521.5 257Z M624 312.5 C617.5 308 611.33 302.97 604.5 299 C603.86 298.63 603.19 300.28 602.5 300 C601.19 299.47 600.91 297.13 599.5 297 C596.76 296.75 594.03 300.08 591.5 299 C581.65 294.78 592.34 292.22 591 288.5 C589.79 285.14 588.01 279.37 584.5 280 C578.7 281.04 576.22 288.46 571.5 292 C569.56 293.46 565.94 291.07 567 288.5 C567.9 286.32 570.88 285.58 572 283.5 C572.34 282.88 571.17 281.78 570.5 282 C569.16 282.45 568.62 285.86 567.5 285 C564.59 282.78 564.34 278.31 562 275.5 C559.28 272.24 555.75 269.73 552.5 267 C546.63 262.07 552.56 267.38 544.5 268 C541.01 268.27 532.89 265.18 534 268.5 C536.94 277.31 544.83 263.72 552 273.5 C552.84 274.64 549.16 275.09 549 276.5 C548.77 278.6 551.54 280.46 551 282.5 C548.83 290.74 542.9 282.37 539.5 284 C530.03 288.53 538.29 293.4 535 299.5 C532.82 303.55 526.99 286.78 529 303.5 C529.8 310.21 530.26 317.74 534.5 323 C538.79 328.32 544.66 313.84 549.5 309 C551.27 307.23 557.19 306 557 308.5 C556.84 310.63 553.77 311.51 553 313.5 C542.63 340.16 555.15 313.26 552 338.5 C551.77 340.37 548.78 340.78 548 342.5 C547.71 343.14 548.83 344.22 549.5 344 C553.25 342.75 558.49 342.15 560 338.5 C561.93 333.84 557.42 328.51 558 323.5 C558.3 320.88 560.36 318.53 562.5 317 C563.29 316.44 564.75 317.56 565 318.5 C566.17 322.87 564.76 327.82 566.5 332 C566.99 333.17 569.33 331.58 570 330.5 C571.18 328.61 569.28 324 571.5 324 C574.14 324 574.96 328.08 576 330.5 C576.53 331.73 575.31 333.36 576 334.5 C576.98 336.13 579.16 339.34 580.5 338 C585.35 333.15 585.19 315.65 590.5 320 C594.37 323.16 594.29 329.31 597 333.5 C598.03 335.1 599.85 337.94 601.5 337 C605.82 334.53 608.28 329.66 611 325.5 C611.55 324.66 610.29 323.21 611 322.5 C614.87 318.63 619.67 315.83 624 312.5Z M256 282.5 C242.72 288.54 259.03 283.29 245.5 278 C243.34 277.15 239.26 282.81 239 280.5 C238.53 276.28 241.13 271.59 244.5 269 C246.52 267.45 249.79 269.22 252 270.5 C257.67 273.78 251.1 275.91 252 279.5 C252.4 281.12 254.67 281.5 256 282.5Z M390.5 381 C389.33 372.83 387.55 364.73 387 356.5 C386.87 354.6 386.92 352.05 388.5 351 C389.82 350.12 392.27 351.1 393 352.5 C395.04 356.45 395.4 361.09 396 365.5 C397.39 375.7 396.62 373.76 390.5 381Z M405.5 352 C406.67 352.83 408.46 353.17 409 354.5 C410.41 357.95 410.61 361.79 411 365.5 C411.7 372.14 411.61 375.89 406.5 381 C404.02 383.48 407.16 374 407 370.5 C406.8 366.06 404.36 361.93 404 357.5 C403.85 355.61 405 353.83 405.5 352Z" fill="rgb(14,23,28)" stroke="rgb(14,23,28)" stroke-width="1" fill-rule="evenodd"/>
<path d="M449.5 77 C451.33 76.17 453.86 76.16 455 74.5 C457.16 71.34 453.42 64.34 460.5 64 C462.24 63.92 468.75 71.21 469 63.5 C469.13 59.45 468.49 55.27 467 51.5 C466.22 49.53 464.45 47.84 462.5 47 C460.81 46.27 462.3 50.68 462 52.5 C461.8 53.69 459.24 53.32 459 54.5 C458.76 55.68 461.96 56.78 461 57.5 C443.75 70.44 445.22 53.88 449.5 77Z M393 53.5 C385.5 52.33 378.08 50.29 370.5 50 C364.46 49.77 365.99 60.05 369.5 62 C370.15 62.36 371.09 61.62 371.5 61 C373.15 58.52 372.56 52.51 375.5 53 C378.53 53.51 375.01 60.19 377.5 62 C379.94 63.78 383.57 61.71 386.5 61 C393.23 59.38 391.87 59.14 393 53.5Z M400.5 50 C390.06 69.73 399.99 46.64 398 68.5 C397.82 70.46 391.34 72.2 397 77.5 C401.16 81.39 405.36 85.54 410.5 88 C413.36 89.37 421.11 85.53 420 88.5 C418.29 93.05 411.39 93.08 407.5 96 C405.81 97.26 403.63 102.97 405.5 102 C413.67 97.75 422.17 93.67 429 87.5 C430.24 86.38 426 85.17 426 83.5 C426 82.3 428.62 82.64 429 81.5 C429.74 79.29 428.38 76.75 429 74.5 C430.08 70.62 432.91 67.38 434 63.5 C434.19 62.82 433.03 61.54 432.5 62 C427.34 66.49 424 72.93 418.5 77 C416.03 78.83 412.2 80.47 409.5 79 C405.31 76.73 403.27 71.69 401 67.5 C397.35 60.77 402.69 59.7 403 52.5 C403.05 51.32 401.33 50.83 400.5 50Z M349 97.5 C342.46 90.96 353.83 101.33 345.5 98 C343.95 97.38 344.08 94.53 342.5 94 C339.65 93.05 336.46 93.51 333.5 94 C332.31 94.2 331.7 95.89 330.5 96 C298.91 98.87 348.73 88.59 314.5 100 C313.2 100.43 311.76 98.44 310.5 99 C308.35 99.96 307.52 102.79 305.5 104 C302.42 105.85 298.32 105.78 295.5 108 C291.78 110.94 290.08 115.9 286.5 119 C284.91 120.38 282.09 119.62 280.5 121 C279.31 122.04 280.12 124.38 279 125.5 C277.1 127.4 273.4 127.21 272 129.5 C269.95 132.84 273.38 140.43 269.5 141 C259.98 142.4 250.63 137.04 241.5 134 C239.3 133.27 248 133.82 248 131.5 C248 129.13 244.86 127.16 242.5 127 C241.01 126.9 241.66 130.06 240.5 131 C237.16 133.71 226.96 135.46 230 138.5 C239.56 148.06 233 128.46 233 142.5 C233 147.67 233.36 157.57 238.5 157 C239.87 156.85 238.2 153.43 239.5 153 C241.61 152.3 247.38 152.75 246 154.5 C242.67 158.72 235.62 158.53 232 162.5 C230.89 163.72 233.93 165.48 235.5 166 C237.11 166.54 235.3 162.2 236.5 161 C237.47 160.03 239.22 162.51 240.5 162 C242.92 161.03 244.05 157.89 246.5 157 C248.1 156.42 249.83 158.33 251.5 158 C259.83 156.33 251.17 155.69 253 153.5 C254.54 151.65 257.56 147.58 259 149.5 C260.71 151.78 255.72 154.67 256 157.5 C256.33 160.85 267.21 157.43 261 165.5 C258.35 168.94 253.32 169.69 250 172.5 C247.89 174.29 246.85 176.8 249.5 178 C252.79 179.49 258.1 179.77 260.5 176 C263 172.08 262.2 166.79 264 162.5 C264.46 161.39 267.16 159.31 267 160.5 C265.89 168.67 262.21 176.34 261 184.5 C260.82 185.69 262.97 186.3 263 187.5 C263.14 193.69 262.58 199.91 261.5 206 C261.38 206.7 259.97 205.21 260 204.5 C260.23 198.67 265.04 185.15 259.5 187 C256.59 187.97 256.91 192.57 256 195.5 C255.4 197.44 254.78 199.48 255 201.5 C255.13 202.69 257 203.3 257 204.5 C257 206.93 254.87 209.08 255 211.5 C255.06 212.68 256.32 213.93 257.5 214 C266.82 214.55 261.05 210.89 266.5 207 C267.58 206.23 269.46 207.83 270.5 207 C271.57 206.14 270.17 203.36 271.5 203 C274.73 202.12 279.04 206.28 281.5 204 C284.91 200.84 283.23 194.8 285 190.5 C285.63 188.97 288.61 185.35 288.5 187 C288.08 193.33 284 199.15 284 205.5 C284 209.04 291.73 206.2 294.5 204 C297.64 201.51 301.58 199.25 303 195.5 C303.79 193.41 298.42 191.08 300 189.5 C301.64 187.86 304.42 193.04 306.5 192 C324.63 182.93 303.02 181.52 301 179.5 C299.83 178.33 302.89 176.37 304.5 176 C306.81 175.47 309.49 183.58 311 174.5 C311.19 173.34 309.66 171.77 308.5 172 C303.22 173.06 298.87 177.63 293.5 178 C288.66 178.33 283.81 176.23 279.5 174 C278.45 173.46 279.7 171.45 279 170.5 C277.74 168.78 273.33 168.52 274 166.5 C277 157.5 280.99 147.81 288.5 142 C291.83 139.42 296.32 145.48 300.5 146 C301.98 146.18 303.19 143.28 304.5 144 C309.05 146.5 312.87 150.36 316 154.5 C320.82 160.87 312.94 163.02 312 168.5 C311.48 171.52 316.43 177.26 318.5 175 C321.47 171.75 322.36 167.02 325 163.5 C326.42 161.6 328.25 159.75 330.5 159 C331.39 158.7 331.83 161.67 332.5 161 C334.61 158.89 334.29 155 336.5 153 C338.15 151.51 342.71 153.7 343 151.5 C343.48 147.8 339.05 145.08 338 141.5 C337.73 140.57 339.81 143.69 340.5 143 C342.14 141.36 341.59 138.34 343 136.5 C343.91 135.32 346.05 135.65 347 134.5 C353.78 126.36 343.35 134.04 344 128.5 C344.63 123.15 349.09 118.81 350 113.5 C351.83 102.77 345.79 110.67 343 108.5 C341.95 107.68 342.06 105.44 343 104.5 C344.2 103.3 346.94 104.83 348 103.5 C348.86 102.43 346.77 100.86 347 99.5 C347.15 98.57 348.33 98.17 349 97.5Z M535 250.5 C530.47 243.7 525.99 239.57 527 230.5 C527.97 221.77 537.42 224.78 525.5 217 C517.18 211.58 519.74 220.4 513.5 223 C511.55 223.81 509.5 220.33 507.5 221 C505.03 221.82 503.1 228.06 501.5 226 C496.34 219.37 506.18 222.04 507 218.5 C507.43 216.65 504.36 215.37 502.5 215 C501.32 214.76 500.64 217.38 499.5 217 C498.3 216.6 497.31 214.57 498 213.5 C500.9 209.02 507.41 210.77 505 204.5 C502.19 197.21 501.47 206.27 500.5 207 C499.75 207.57 499.36 204.62 498.5 205 C495.69 206.25 494.14 209.42 491.5 211 C490.64 211.51 489.31 211.58 488.5 211 C487.81 210.51 487.6 209.25 488 208.5 C488.89 206.84 493.13 206.01 492 204.5 C490.6 202.63 486.87 205.9 485 204.5 C483.87 203.65 487.59 202.85 488 201.5 C488.67 199.27 487.39 196.75 488 194.5 C488.44 192.89 490.87 192.16 491 190.5 C491.14 188.66 487.29 190.59 485.5 191 C484.26 191.29 481.23 190.51 482 189.5 C484.47 186.27 490.05 186.07 492 182.5 C492.9 180.84 487.59 180.34 488 178.5 C488.56 175.96 493.11 175.95 494 173.5 C494.72 171.52 491.06 169.39 492 167.5 C493.8 163.91 498.67 162.77 501 159.5 C507.93 149.79 500.75 156.23 500 151.5 C499.11 145.89 501.49 139.6 499 134.5 C497.46 131.35 492.92 130.74 489.5 130 C488.58 129.8 488.36 132.39 487.5 132 C476.85 127.16 489.12 127.91 487 122.5 C484.49 116.09 471.73 113.44 467.5 111 C462.53 108.13 459.03 102.51 453.5 101 C450.62 100.22 448.44 105.47 445.5 105 C439.32 104.01 434.41 99.08 428.5 97 C426.11 96.16 431.88 103.62 429.5 106 C428.56 106.94 426.44 106.94 425.5 106 C423.7 104.2 424.87 99.91 422.5 99 C419.33 97.78 415.17 98.9 412.5 101 C406.92 105.4 402.32 111.22 399 117.5 C397.6 120.15 400.08 123.7 399 126.5 C398.23 128.49 394.95 128.59 394 130.5 C393.39 131.73 395.47 133.21 395 134.5 C394.02 137.19 390.82 138.75 390 141.5 C389.65 142.65 392.38 143.36 392 144.5 C391.47 146.08 388.53 145.92 388 147.5 C387.62 148.64 390.72 149.54 390 150.5 C388.98 151.86 385.24 153.18 385 151.5 C384.58 148.55 389.3 146.47 389 143.5 C388.82 141.71 384.71 143.15 384 141.5 C383.01 139.2 386.93 133.39 384.5 134 C370.74 137.44 382.25 137.35 377.5 144 C376.82 144.96 374.08 142.32 374 143.5 C373.82 146.13 374.42 152.62 376.5 151 C378.03 149.81 378.13 144.63 379.5 146 C381.07 147.57 376.71 150.69 378 152.5 C391.2 170.98 388.65 147.76 382 158.5 C378.38 164.34 378.04 171.94 374 177.5 C371.58 180.83 367.54 183.19 363.5 184 C359.91 184.72 367.49 177.83 369 174.5 C369.83 172.68 368.3 170.37 369 168.5 C369.42 167.37 371.65 167.65 372 166.5 C372.77 163.95 371.48 161.11 372 158.5 C372.18 157.58 374 157.44 374 156.5 C374 151.79 372 147.21 372 142.5 C372 141.3 374.46 140.61 374 139.5 C370.9 132.06 367.41 124.48 362 118.5 C360.43 116.77 356.27 116.54 355 118.5 C351.84 123.39 351.82 129.74 351 135.5 C350.48 139.13 350.56 142.86 351 146.5 C351.08 147.2 352 148.5 352.5 148 C354.08 146.42 353.92 143.58 355.5 142 C356.03 141.47 356.79 143.24 357.5 143 C358.5 142.67 364.06 135.96 362 143.5 C361.75 144.41 360.13 144.57 360 145.5 C357.1 165.78 366.27 151.16 353 176.5 C352.31 177.82 349 177.01 349 178.5 C349 192.84 358.72 176.82 348.5 185 C345.3 187.56 336.07 202.19 344.5 205 C345.64 205.38 345.33 202.29 346.5 202 C347.41 201.77 347.56 204 348.5 204 C349.44 204 349.58 201.82 350.5 202 C351.89 202.28 352.11 204.72 353.5 205 C354.42 205.18 354.56 203 355.5 203 C356.44 203 356.59 205.23 357.5 205 C358.67 204.71 358.3 202 359.5 202 C360.91 202 361.11 204.72 362.5 205 C364.17 205.33 365.85 204.41 367.5 204 C369.39 203.53 370.63 201.53 372.5 201 C373.38 200.75 377.77 200.55 378.5 200 C379.6 199.18 378.4 196.82 379.5 196 C380.71 195.09 384.3 196.98 384 195.5 C383.72 194.09 380.27 192.74 381.5 192 C383.65 190.71 390.22 194.69 389 192.5 C388.06 190.8 382.83 191.05 384 189.5 C385.61 187.35 391.47 191.14 392 188.5 C392.53 185.86 385.53 187.14 385 184.5 C384.6 182.51 391.33 185.5 391 183.5 C390.53 180.67 381.49 179.89 384 178.5 C387.43 176.59 391.58 181.17 395.5 181 C396.5 180.96 396.25 178.66 395.5 178 C393.1 175.88 384.13 174.93 387 173.5 C390.8 171.6 395.25 176.17 399.5 176 C400.5 175.96 400.33 173.56 399.5 173 C387.01 164.46 386.31 173.03 400.5 171 C401.49 170.86 401.29 168.61 400.5 168 C398.07 166.14 389.83 166.67 392 164.5 C394.83 161.67 403.22 168.42 404 164.5 C404.79 160.55 391.5 163.24 393 159.5 C402.01 136.98 419.94 187.13 393 152.5 C390.99 149.92 399.23 154.8 402.5 155 C404.72 155.14 410.31 155.29 409 153.5 C406.36 149.89 396.37 151.93 397 147.5 C397.61 143.2 406.03 148.27 410 146.5 C411.52 145.82 406.86 144.93 406 143.5 C391.45 119.26 424.38 161.88 400 137.5 C398.65 136.15 411.66 139.54 410 135.5 C408.92 132.88 404.4 132.3 404 129.5 C403.58 126.55 405.89 123.61 408 121.5 C409.2 120.3 413.24 122.18 413 120.5 C412.24 115.19 402.98 123.38 415 112.5 C428.82 100 413.15 118.73 431.5 113 C434.94 111.92 434.78 106.36 437.5 104 C438.64 103.01 436.7 107.02 437 108.5 C437.43 110.63 438.42 113.39 440.5 114 C442.36 114.55 443.57 110.81 445.5 111 C447.62 111.21 448.43 115.52 450.5 115 C452.67 114.46 452.04 107.31 453.5 109 C456.54 112.51 457 117.85 457 122.5 C457 124.4 455.05 125.9 453.5 127 C450.28 129.3 445.92 129.84 443 132.5 C441.74 133.65 441.76 135.82 442 137.5 C442.13 138.43 444.92 139.32 444 139.5 C441.39 140.02 437.47 134.47 437 141.5 C436.9 142.99 439.72 144.2 439 145.5 C437.61 148.01 431.03 147.8 432 150.5 C440.22 173.33 444.66 145.72 455 160.5 C458.38 165.33 455.31 172.53 457.5 178 C459.18 182.2 460.74 168.68 459 164.5 C457.04 159.8 452.19 156.45 451 151.5 C450.63 149.96 453.92 149.88 455.5 150 C464.39 150.68 468.32 153.65 466 164.5 C465.62 166.26 461.3 164.73 461 166.5 C460.69 168.36 464.16 168.81 465 170.5 C468.2 176.89 462.55 172.52 462 177.5 C461.36 183.27 470.77 171.07 468 180.5 C467.45 182.36 465.24 183.57 465 185.5 C464.85 186.69 467.54 187.43 467 188.5 C465.84 190.83 461.43 190.93 461 193.5 C460.72 195.18 464.67 193.44 466 194.5 C469.14 197.01 463.06 198.98 463 199.5 C462.7 202.18 466.55 202.74 467.5 201 C469.22 197.85 468.96 193.54 471.5 191 C473.67 188.83 476.08 196.63 475 199.5 C474.58 200.63 471.89 200.3 472 201.5 C472.9 211.37 483.13 197.6 482 202.5 C481.56 204.39 478.04 205.81 479 207.5 C482.95 214.49 490.9 218.6 495 225.5 C497.44 229.6 496.49 234.97 498 239.5 C498.56 241.18 502.47 244.32 504 240.5 C505.05 237.86 502.26 233.74 504.5 232 C506.18 230.69 506.65 235.93 508.5 237 C510.09 237.92 512.95 235.99 514 237.5 C516.46 241.06 514.44 246.94 517.5 250 C519.87 252.37 524.16 251.28 527.5 251 C528.44 250.92 528.57 248.85 529.5 249 C536.35 250.14 531.35 254.15 535 250.5Z M287 124.5 C287 123.5 286.29 122.21 287 121.5 C291.62 116.88 301.82 109.36 309.5 110 C310.87 110.11 309.37 113.22 310.5 114 C312.01 115.05 316.75 112.82 316 114.5 C314.27 118.38 310.39 121.29 306.5 123 C305.21 123.57 304.89 120.28 303.5 120 C302.58 119.82 302.43 121.83 301.5 122 C298.55 122.54 295.35 121.05 292.5 122 C285.08 124.47 293.17 128.2 287 124.5Z M216.5 131 C211.83 133 206.96 134.58 202.5 137 C194.8 141.18 200.53 139.25 201 143.5 C201.17 145 197.64 142.01 196.5 143 C193.92 145.26 194.08 149.74 191.5 152 C190.6 152.79 189.6 149.53 188.5 150 C185.46 151.3 182.86 153.76 181 156.5 C179.42 158.82 178.48 166.06 184.5 165 C186.36 164.67 186.88 160.03 188.5 161 C190.13 161.98 186.15 164.8 187 166.5 C187.67 167.85 190.78 168.32 191.5 167 C193.35 163.61 191.78 159.17 193 155.5 C196.44 145.19 196.24 155.81 199.5 155 C201.79 154.43 202.23 150.62 204.5 150 C208.77 148.83 200.18 158.08 200 162.5 C199.92 164.4 202.7 165.4 204.5 166 C205.7 166.4 202.64 163.72 203 162.5 C203.96 159.31 207.51 157.48 209 154.5 C212.54 147.41 215.59 140.05 218 132.5 C218.21 131.83 217 131.5 216.5 131Z M479 131.5 C473.5 137.33 468.98 144.27 462.5 149 C461.3 149.88 461.88 145.55 460.5 145 C459.38 144.55 458.66 147.32 457.5 147 C453.98 146.01 449.16 144.97 448 141.5 C447.1 138.81 450.86 136.03 453.5 135 C455.46 134.23 457.4 137.23 459.5 137 C460.91 136.84 461.16 134.45 462.5 134 C466.46 132.68 459.27 140.6 463.5 140 C464.43 139.87 464.83 137.33 465.5 138 C466.7 139.2 464.97 143.74 466.5 143 C471.6 140.54 474.83 135.33 479 131.5Z M174.5 153 C173.33 154.17 171.41 154.9 171 156.5 C170.16 159.73 171.61 163.22 171 166.5 C170.59 168.7 168.22 170.28 168 172.5 C167.85 173.98 170.87 175.29 170 176.5 C168.52 178.57 164.64 177.56 163 179.5 C161.15 181.69 169.74 181.64 170 184.5 C170.47 189.65 166.89 194.4 166 199.5 C165.33 203.36 164.58 211 168.5 211 C180.05 211 172.76 201.94 173 196.5 C173.18 192.38 176 188.62 176 184.5 C176 183.09 173.53 182.81 173 181.5 C172.12 179.31 171.61 176.82 172 174.5 C175.91 151.06 177.73 175.62 174.5 153Z M370 223.5 C374.19 227.69 367.52 221.99 374.5 220 C376.1 219.54 376.9 223.48 378.5 223 C381.21 222.19 381.77 217.74 384.5 217 C386.38 216.49 387.76 220.87 389.5 220 C391.31 219.09 389.23 215.58 390.5 214 C391.16 213.18 392.6 215.54 393.5 215 C394.78 214.23 394.09 211.47 395.5 211 C397.25 210.42 401 213.34 401 211.5 C401 209.92 398.38 208.12 399.5 207 C399.57 206.93 405.35 211.4 406 207.5 C406.26 205.94 403.14 203.81 404.5 203 C405.93 202.14 406.89 205.56 408.5 206 C409.18 206.19 410 205.21 410 204.5 C410 202.6 406.7 199.6 408.5 199 C410.78 198.24 412.22 202.24 414.5 203 C415.17 203.22 416.22 202.17 416 201.5 C415.24 199.22 410.3 197.2 412 195.5 C413.74 193.76 416.11 198.4 418.5 199 C419.19 199.17 420.22 198.17 420 197.5 C419.24 195.22 414.3 193.2 416 191.5 C417.74 189.76 420.11 194.4 422.5 195 C423.19 195.17 424.3 194.14 424 193.5 C422.9 191.14 417.16 189.34 419 187.5 C420.95 185.55 423.81 190.4 426.5 191 C427.19 191.15 428.25 190.16 428 189.5 C427.07 187.03 422.98 185.58 423.5 183 C423.92 180.91 426.37 187 428.5 187 C430.17 187 429.83 183 431.5 183 C434.19 183 435.93 186.23 438.5 187 C439.51 187.3 440.87 186.84 441.5 186 C445.03 181.3 436.62 183.06 436.5 183 C433.94 181.78 429.1 180.19 430 177.5 C430.83 175 434.88 179.76 437.5 180 C438.76 180.11 441.69 179.57 441 178.5 C438.94 175.31 431.46 175.26 432 171.5 C432.48 168.16 438.18 174.4 441.5 175 C442.2 175.13 443.42 174.07 443 173.5 C441.02 170.85 433.16 169.34 435.5 167 C438.04 164.46 441.98 170.3 445.5 171 C446.45 171.19 448.75 170.12 448 169.5 C442.04 164.59 435.67 159.87 428.5 157 C427.1 156.44 428.92 160.3 428 161.5 C426.54 163.41 423.56 163.67 422 165.5 C421.35 166.26 422.55 167.67 422 168.5 C420.43 170.85 417.37 172.03 416 174.5 C415.49 175.42 417.47 176.56 417 177.5 C415.63 180.25 412.49 181.81 411 184.5 C410.64 185.15 412.46 185.91 412 186.5 C409.82 189.3 406.3 190.8 404 193.5 C402.4 195.37 402.24 198.26 400.5 200 C399.79 200.71 398.36 199.49 397.5 200 C394.86 201.58 393.25 204.63 390.5 206 C389.56 206.47 388.48 204.61 387.5 205 C383.41 206.64 381.35 208.1 376.5 209 C361.58 211.76 365.5 211.12 370 223.5Z M55 215.5 C57.17 216.33 59.18 217.86 61.5 218 C62.44 218.06 62.57 216.17 63.5 216 C68.1 215.14 73.08 216.55 77.5 215 C86.65 211.8 93.85 202.83 103.5 202 C108.25 201.59 96.92 209.14 95 213.5 C94.58 214.46 97.5 213.57 98 214.5 C98.87 216.12 96.88 219.13 98.5 220 C100.36 221 102.74 219.16 104.5 218 C107.66 215.93 111.48 213.96 113 210.5 C121.02 192.28 93.86 220.64 114.5 200 C132.63 181.87 106.37 207.47 124.5 200 C127.05 198.95 126.14 194.54 128 192.5 C129.81 190.52 135.3 191.17 135 188.5 C134.31 182.26 122.49 193.86 116.5 192 C113.57 191.09 111.16 185.95 113 183.5 C116.44 178.91 123.43 178.69 128.5 176 C133.1 173.57 125.65 173.31 126 169.5 C126.14 168 129.17 169.72 130.5 169 C133.64 167.31 137.4 165.69 139 162.5 C139.71 161.09 135.97 160.41 134.5 161 C129.36 163.08 124.78 166.47 120.5 170 C60.89 219.24 117.04 183.18 56.5 213 C55.63 213.43 55.5 214.67 55 215.5Z M503 165.5 C503.33 167.83 504.75 170.26 504 172.5 C503.84 172.97 491.76 176.42 502.5 180 C503.91 180.47 503.26 175.17 504.5 176 C508.83 178.89 510.71 184.43 514.5 188 C517.84 191.15 522.83 193.37 527.5 192 C528.56 191.69 532.99 185.68 533 185.5 C533.11 183.49 532.48 179.65 530.5 180 C527.47 180.53 527.02 185.24 524.5 187 C522.85 188.15 517.58 185.92 519 184.5 C521.11 182.39 525.71 183.19 527 180.5 C528.14 178.12 522.36 174.53 524.5 173 C526.62 171.49 528.14 176.9 530.5 178 C531.14 178.3 531.92 177.2 532 176.5 C534.27 156.1 526.84 181.03 522.5 168 C521.96 166.37 525.24 165.2 525 163.5 C524.8 162.08 522.93 160.95 521.5 161 C518.02 161.13 514.95 163.54 511.5 164 C501.42 165.34 510.98 159.8 503 165.5Z M227.5 164 C226.33 164.83 223.9 165.07 224 166.5 C225.83 193.98 232.58 143.71 229 179.5 C228.91 180.44 226.51 180.69 227 181.5 C229.76 186.1 235.92 182.25 235 190.5 C234.52 194.81 230.52 198.2 230 202.5 C229.63 205.62 236.59 200.31 238 197.5 C238.38 196.74 236.9 194.4 237.5 195 C239.69 197.19 241.87 199.61 243 202.5 C243.61 204.07 237.74 212.46 246.5 211 C251.61 210.15 242.73 198.42 245 195.5 C249.61 189.57 258.97 197.14 253 182.5 C252.07 180.22 248.78 178.06 246.5 179 C244.26 179.92 245.91 184.03 244.5 186 C243.1 187.96 240.71 182.95 238.5 182 C237.24 181.46 235.47 183.97 234.5 183 C217.97 166.47 233.11 178.47 231 166.5 C230.75 165.09 228.67 164.83 227.5 164Z M191.5 173 C188.67 173.83 185.25 173.59 183 175.5 C182.08 176.28 185.38 177.36 185 178.5 C184.47 180.08 181.62 179.95 181 181.5 C180.65 182.38 182.94 182.56 183 183.5 C183.29 188.5 183.76 193.81 182 198.5 C181.4 200.09 177.72 197.96 177 199.5 C176.06 201.51 176.56 204.92 178.5 206 C179.96 206.81 179.88 202.4 181.5 202 C185.62 200.97 190.69 211.62 193 198.5 C193.34 196.59 188.7 197.31 188 195.5 C185.58 189.21 195.18 193.8 195 191.5 C194.8 188.9 190.3 188.09 190 185.5 C188.02 168.65 196.65 178.15 191.5 173Z M139 180.5 C150.17 203.86 139.49 189.01 148.5 183 C149.99 182 148.87 187.26 150.5 188 C151.81 188.59 154.28 186.91 154 185.5 C151.7 174.01 146.07 178.64 139 180.5Z M504.5 180 C503.67 180.83 502.06 181.32 502 182.5 C501.87 185.25 502.59 188.14 504 190.5 C506.19 194.14 508.27 200.42 512.5 200 C516.02 199.65 515.31 192.78 514 189.5 C512.34 185.34 507.67 183.17 504.5 180Z M339.5 188 C332.72 192.07 341.75 185.75 336.5 194 C333.48 198.74 330.68 190.14 330.5 190 C328.52 188.46 331.31 195.01 331 197.5 C330.85 198.69 328.45 198.38 328 199.5 C327.29 201.26 330 205.17 331.5 204 C332.92 202.9 332.08 200.1 333.5 199 C334.27 198.4 336.22 199.55 336 200.5 C335.48 202.76 331.42 208.04 333.5 207 C336.04 205.73 338.92 204.12 340 201.5 C340.54 200.19 336.88 199.91 337 198.5 C338.07 185.64 344.01 192.51 339.5 188Z M425.5 208 C426.67 207.5 428.36 207.6 429 206.5 C430.86 203.31 429.25 197.75 432.5 196 C434.74 194.8 433.41 201.56 435.5 203 C436.68 203.82 439.2 201.92 439 200.5 C438.4 196.29 437.61 187.91 433.5 189 C427.64 190.56 426.35 198.91 424 204.5 C423.51 205.67 425 206.83 425.5 208Z M163.5 195 C162.83 198 164.38 202.92 161.5 204 C155.81 206.14 155.48 186.03 148 202.5 C147.3 204.05 153 201.8 153 203.5 C153 205.63 148.79 205.52 148 207.5 C147.25 209.38 149.57 211.55 149 213.5 C147.97 217.01 143.04 219.93 139.5 219 C137.4 218.45 136.34 215.65 136 213.5 C135.71 211.68 136.92 206.83 135.5 208 C132.01 210.85 128.85 214.4 127 218.5 C122.33 228.85 122.64 236.97 129.5 246 C130.31 247.06 132.31 245.4 133.5 246 C134.57 246.54 134.4 248.53 135.5 249 C137.25 249.75 138.19 244.98 137 243.5 C136.14 242.43 133.74 243.66 133 242.5 C120.61 223.03 134.06 240.32 133 226.5 C132.87 224.84 127.73 224.58 129 223.5 C152.06 203.74 123.21 231.44 139.5 227 C143.62 225.88 143.84 219.2 147.5 217 C148.78 216.23 148.17 220.33 149.5 221 C150.34 221.42 150.57 218.85 151.5 219 C153.14 219.27 154.23 223.08 155.5 222 C157.75 220.09 156.51 216.05 158 213.5 C159.43 211.06 163.19 210.21 164 207.5 C165.19 203.5 163.67 199.17 163.5 195Z M301.5 225 C302.67 223.5 304.46 222.32 305 220.5 C305.39 219.18 303.03 217.47 304 216.5 C305.18 215.32 308.25 217.99 309 216.5 C310.2 214.1 306.91 210.96 308 208.5 C309.67 204.74 320.69 212.39 315 200.5 C309.21 188.39 303.17 201.28 299.5 204 C297.28 205.64 292.95 204.91 292 207.5 C291.17 209.76 295.24 211.22 296 213.5 C300.3 226.39 289.02 212.52 301.5 225Z M316.5 235 C321.33 230.17 327.3 226.25 331 220.5 C367.12 164.44 291.95 258.55 339 211.5 C340.17 210.33 337.1 208.42 335.5 208 C333.54 207.48 331.29 209.96 329.5 209 C328.3 208.35 325.75 193.2 319 203.5 C312.31 213.71 314.33 224.17 316.5 235Z M474 214.5 C473.5 213.67 473.36 212.45 472.5 212 C468.66 209.97 463.19 213.3 459.5 211 C457.71 209.88 459.15 206.32 457.5 205 C457.37 204.9 448 206.25 448 209.5 C448 211.34 451.81 208.27 453.5 209 C455.46 209.84 455.46 213.37 457.5 214 C460.38 214.89 463.51 212.6 466.5 213 C475.28 214.17 470.24 218.26 474 214.5Z M361.5 232 C362 229.83 363.44 227.68 363 225.5 C362.65 223.75 352.88 221.01 355 219.5 C357.34 217.83 360.93 219.29 363.5 218 C364.99 217.25 365.11 212.58 363.5 213 C360.62 213.76 357.61 219.11 355.5 217 C353.49 214.99 363.01 212.51 361 210.5 C357.8 207.3 351.77 207.49 347.5 209 C345.21 209.81 347.85 216.59 345.5 216 C342.83 215.33 345.67 209.69 343.5 208 C343.05 207.65 340.12 224.7 340 226.5 C339.95 227.21 340.95 228.45 341.5 228 C343.36 226.48 343.14 221.53 345.5 222 C347.81 222.46 345.01 227.18 346.5 229 C351.26 234.82 355.78 232.82 361.5 232Z M290 227.5 C282.42 222.45 291.43 229.66 287 220.5 C285.13 216.63 283.76 210.58 279.5 210 C274.11 209.26 269.24 214.08 265 217.5 C263.68 218.57 263.13 221.04 264 222.5 C265.04 224.23 267.49 225.12 269.5 225 C270.91 224.92 272.05 220.66 272.5 222 C273.04 223.63 269.76 224.8 270 226.5 C270.41 229.35 275.72 225.76 278.5 225 C287.76 222.48 282.36 230.77 290 227.5Z M249.5 250 C256.72 240.72 250.26 251.16 252 235.5 C253.4 222.92 255.73 231.19 262 221.5 C262.53 220.68 261.47 219.11 260.5 219 C257.97 218.72 254.8 222.3 253 220.5 C251.49 218.99 256.23 217.49 257 215.5 C257.25 214.84 256.17 213.78 255.5 214 C250.9 215.53 249.2 220.09 249 224.5 C248.61 232.99 249.33 241.5 249.5 250Z M421 219.5 C427.16 225.66 420.27 220.44 425.5 220 C428.84 219.72 432.27 220.1 435.5 221 C436.63 221.32 437.77 222.34 438 223.5 C440.08 233.9 426.68 223.83 445.5 237 C446.08 237.41 447.32 236.13 447 235.5 C445.4 232.31 439.56 230.44 440.5 227 C441.25 224.25 445.67 229.72 448.5 230 C449.44 230.09 449.59 227.77 450.5 228 C451.67 228.29 451.3 231 452.5 231 C453.55 231 452.48 228.26 453.5 228 C454.67 227.71 455.41 230.5 456.5 230 C457.85 229.39 461.31 222.27 457.5 221 C455.87 220.46 453.68 225.08 453 223.5 C452.12 221.44 455.87 219.73 456 217.5 C456.07 216.32 454.45 214.3 453.5 215 C450.96 216.86 451.64 223 448.5 223 C445.75 223 447.91 217.36 446.5 215 C445.96 214.1 446.55 218 445.5 218 C443.26 218 441.74 215 439.5 215 C438.3 215 438.53 217.38 437.5 218 C436.64 218.51 435.5 218.1 434.5 218 C424.34 216.98 427.89 211.08 421 219.5Z M374 303.5 C363.06 292.56 365.28 290.33 350.5 290 C346.97 289.92 341.58 294.66 340 291.5 C338.1 287.7 341.75 282 345.5 280 C350.2 277.48 356.22 280.75 361.5 280 C362.46 279.86 363.31 278.42 363 277.5 C360.22 269.15 359.73 276 356.5 276 C351.79 276 346.59 276.35 342.5 274 C335.95 270.24 328.39 265.66 326 258.5 C324.79 254.86 333.7 259.54 337.5 259 C338.67 258.83 340.37 257.62 340 256.5 C339.4 254.7 337.33 253.5 335.5 253 C331.63 251.94 327.42 252.84 323.5 252 C322.58 251.8 322.44 250 321.5 250 C315.2 250 317.71 255.51 312.5 249 C312.08 248.48 311.87 247.21 312.5 247 C314.88 246.21 320.11 249 320 246.5 C319.8 241.97 315.21 238.71 312 235.5 C306.31 229.81 300.56 223.85 293.5 220 C292.05 219.21 289.56 221.91 290 223.5 C291.02 227.16 294.39 229.74 297 232.5 C300.24 235.93 303.45 239.57 307.5 242 C308.79 242.78 312.67 240.15 312 241.5 C305.63 254.24 299 222.79 299 246.5 C299 249.95 302.81 243.97 305.5 245 C315.69 248.92 300.75 249.13 308.5 253 C310.44 253.97 313.3 252.14 315 253.5 C315.99 254.29 314.7 256.6 313.5 257 C312.36 257.38 311.69 254.84 310.5 255 C289.98 257.68 307.7 258.6 309 262.5 C309.67 264.52 305.63 265.46 305 267.5 C303.4 272.71 307.41 275.6 302.5 279 C296.76 282.97 299.47 277.99 295.5 276 C294.01 275.25 291.46 277.37 290.5 276 C288.55 273.22 290.39 268.83 288.5 266 C287.67 264.76 287.71 269.13 286.5 270 C285.12 270.99 283.16 271.38 281.5 271 C280.55 270.78 279.62 269.39 280 268.5 C280.42 267.53 283.33 268.5 283 267.5 C282.1 264.81 280.34 260.88 277.5 261 C274.43 261.13 274.53 267.47 271.5 268 C269.52 268.35 269 264.51 269 262.5 C269 261.32 270.32 265 271.5 265 C272.47 265 273.27 263.43 273 262.5 C270.8 254.79 251.38 251.35 255 259.5 C257.25 264.57 260.69 269.05 264 273.5 C265.55 275.58 266.94 278.6 269.5 279 C271.36 279.29 271.65 274.63 273.5 275 C275.63 275.43 277.9 278.52 277 280.5 C276.17 282.32 269.95 278.8 271 280.5 C273.86 285.13 278.73 288.38 283.5 291 C284.55 291.58 285.3 289 286.5 289 C288.61 289 290.71 289.89 292.5 291 C296.8 293.66 295.25 302.17 299.5 302 C302.66 301.87 305.34 299 308.5 299 C309.7 299 311.57 301.46 310.5 302 C309.17 302.67 307.98 300.13 306.5 300 C304.81 299.85 305.99 304.21 307.5 305 C309.93 306.28 312.8 307.51 315.5 307 C318.43 306.45 326.28 296.68 331 303.5 C332.11 305.1 328.44 306.61 328 308.5 C327.4 311.1 334.11 310.39 336 308.5 C347.93 296.57 326.63 305.54 328 296.5 C328.67 292.08 335.82 288.58 334 284.5 C330.06 275.67 321.59 269.28 313.5 264 C311.81 262.9 310.13 267.68 311 269.5 C315.68 279.28 322.61 270.61 322 283.5 C321.93 284.93 319.86 286.45 318.5 286 C316.8 285.43 317.77 279.73 316.5 281 C314.7 282.8 315.91 287.2 313.5 288 C299.73 292.59 308.84 277.49 309 276.5 C309.55 273.21 307.66 269.55 309 266.5 C310.23 263.68 314.1 262.91 316 260.5 C316.73 259.58 315.54 256.32 316.5 257 C323.99 262.35 330.49 268.99 337 275.5 C338.05 276.55 339.31 278.04 339 279.5 C338.22 283.14 334.12 285.78 334 289.5 C333.71 298.55 339.81 293.22 343 295.5 C343.61 295.93 341.73 296.8 342 297.5 C342.68 299.27 343.82 301.12 345.5 302 C353.06 305.96 354.09 300.48 361.5 299 C371.26 297.05 357.8 305 363.5 305 C367.04 305 370.5 304 374 303.5Z M486 240.5 C484.17 239 482.75 236.75 480.5 236 C477.01 234.84 472.79 236.65 469.5 235 C466.94 233.72 467.36 227.83 464.5 228 C461.75 228.16 461.39 232.77 461 235.5 C460.83 236.69 464.19 238.67 463 238.5 C460.85 238.19 459.66 235.27 457.5 235 C454.02 234.57 457.5 242.03 458 245.5 C458.14 246.46 457.39 247.62 456.5 248 C454.81 248.73 450.05 246.92 451 248.5 C452.65 251.25 456.51 254.17 459.5 253 C462.44 251.85 459.85 245.72 462.5 244 C468.09 240.38 469.34 253.89 469.5 254 C470.71 254.87 470.04 250.29 471.5 250 C481.16 248.07 478.36 258.25 485 246.5 C486 244.73 485.67 242.5 486 240.5Z M429.5 257 C431 251.5 430.69 245.14 434 240.5 C435.17 238.86 437.5 243.2 439.5 243 C441.39 242.81 445.2 240.97 444 239.5 C440.74 235.52 435.53 233.12 430.5 232 C428.64 231.59 426.89 233.82 426 235.5 C422.26 242.57 428 238.77 429 243.5 C429.93 247.91 429.33 252.5 429.5 257Z M545 266.5 C544.14 261.36 545.17 259.18 539.5 257 C534.67 255.14 529.65 253.5 524.5 253 C520.98 252.66 515.96 251.56 514 254.5 C512.38 256.93 515.73 261.08 518.5 262 C520.34 262.61 519.58 256.73 521.5 257 C526.41 257.7 527.62 266.12 532.5 267 C536.6 267.74 540.83 266.67 545 266.5Z M547 261.5 C552 265.83 557.65 269.51 562 274.5 C564.6 277.48 563.78 283.67 567.5 285 C570.68 286.14 577.07 282.7 576 279.5 C573.98 273.45 566.97 270.28 561.5 267 C546.89 258.23 565.98 278.13 559 266.5 C557.3 263.66 554.84 261.34 552.5 259 C549.89 256.39 549.1 259.4 547 261.5Z M244.5 269 C243.13 276.78 240.02 280.19 250.5 284 C251.85 284.49 253.55 282.86 254 281.5 C254.3 280.61 252 280.44 252 279.5 C252 271.85 254.66 270.69 244.5 269Z M533.5 290 C536 286.17 539.11 282.67 541 278.5 C541.69 276.98 541.94 274.88 541 273.5 C536.71 267.23 523.99 264.87 527 277.5 C528.09 282.07 531.33 285.83 533.5 290Z M422 284.5 C416.83 282 412.14 278.07 406.5 277 C404.37 276.59 400.57 278.37 401 280.5 C401.65 283.74 405.25 286.38 408.5 287 C413 287.86 417.5 285.33 422 284.5Z M449.5 296 C442 304.83 433.95 313.23 427 322.5 C426.58 323.07 427.95 324.45 428.5 324 C434.14 319.36 439.27 314.07 444 308.5 C446.81 305.19 449.25 301.48 451 297.5 C451.28 296.85 450 296.5 449.5 296Z M350 338.5 C329.18 324.09 357.18 341.3 336.5 335 C330.8 333.26 326.09 329.08 320.5 327 C319.84 326.75 318.48 328.02 319 328.5 C334 342.35 331.18 339.07 350 338.5Z" fill="rgb(36,54,61)" stroke="rgb(36,54,61)" stroke-width="1" fill-rule="evenodd"/>
<path d="M470 54.5 C469.03 49.66 469.38 46.58 463.5 44 C456.16 40.78 448.32 38.76 440.5 37 C438.96 36.65 442.31 39.95 442 41.5 C441.71 42.96 438.87 42.29 438 43.5 C437.59 44.08 438.79 44.95 439.5 45 C445.48 45.46 451.54 44.29 457.5 45 C460.02 45.3 462.7 46.2 464.5 48 C470.97 54.47 465.88 58.62 470 54.5Z M401.5 65 C403.83 65.33 406.18 66.41 408.5 66 C410.37 65.67 407.17 62.39 407 60.5 C406.8 58.34 411.78 61.33 413.5 60 C414.95 58.87 412.95 56.01 414 54.5 C419.78 46.15 418.9 62.75 414 50.5 C413.65 49.62 416.34 49.38 416 48.5 C415.24 46.52 413.57 43.52 411.5 44 C404.08 45.71 400.69 55.33 400 61.5 C399.86 62.76 401 63.83 401.5 65Z M440.5 82 C441 80.83 442.44 79.69 442 78.5 C441.1 76.06 437 75.1 437 72.5 C437 70.7 442.57 72.2 442 70.5 C434.99 49.46 428.64 53.13 421 69.5 C420.46 70.65 423.41 71.65 424.5 71 C428.14 68.82 430.15 59.4 433.5 62 C437 64.72 430 70.18 429 74.5 C426.52 85.23 430.74 81.58 440.5 82Z M470 70.5 C462.21 62.71 476.5 76 466.5 71 C465.17 70.33 465.63 67.97 464.5 67 C455.25 59.07 457.56 72.94 455 75.5 C451.32 79.18 444.95 71.25 447 81.5 C448 86.52 454.4 88.23 458.5 86 C462.44 83.86 465.33 80.1 468 76.5 C469.26 74.81 469.33 72.5 470 70.5Z M290 120.5 C293.5 121 296.99 122.39 300.5 122 C301.91 121.84 302.11 118.77 303.5 119 C305.14 119.27 304.92 123.53 306.5 123 C319.02 118.83 314.68 111.26 304.5 111 C296.46 110.79 294.03 115.58 290 120.5Z M489.5 180 C490.5 180.33 491.49 181.31 492.5 181 C517.87 173.28 486.3 181.4 499.5 166 C503.4 161.45 529 165.59 503.5 154 C501.18 152.95 505.81 159.08 505 161.5 C504.55 162.86 502.63 158.12 501.5 159 C499.9 160.24 502.08 163.73 500.5 165 C497.91 167.07 492.85 154.8 492 167.5 C491.89 169.16 496.57 168.93 496 170.5 C491.47 182.97 484.59 175.09 489.5 180Z M131.5 183 C132.33 182.5 133.67 182.41 134 181.5 C135.1 178.49 133.23 174.27 135.5 172 C140.51 166.99 148.48 165.95 154 161.5 C154.94 160.75 151.57 160.56 151 159.5 C150.28 158.17 152.01 155.07 150.5 155 C146.91 154.83 143.38 156.86 140.5 159 C127.82 168.43 130.98 168.99 131.5 183Z M275 165.5 C277.5 168.67 279.53 172.27 282.5 175 C284.55 176.88 293.87 178.44 295.5 178 C298.76 177.11 302.57 175.56 304 172.5 C304.76 170.87 299.92 172.04 299 170.5 C298.22 169.21 301.01 166.09 299.5 166 C297.15 165.86 294.84 167.31 292.5 167 C289.68 166.62 286.75 165.75 284.5 164 C283.42 163.16 284.86 159.79 283.5 160 C280.17 160.53 277.83 163.67 275 165.5Z M165.5 196 C167 192.5 169.42 189.26 170 185.5 C170.47 182.46 162.58 186.14 161 183.5 C159.88 181.64 162.71 179.24 164.5 178 C166.06 176.92 170.98 178.13 170 176.5 C168.52 174.04 164.74 173.78 163 171.5 C160.86 168.69 162.33 159.35 154.5 163 C144.84 167.51 159.54 167.41 155 171.5 C151.78 174.4 145.8 173.19 143 176.5 C141.56 178.2 147.51 177.01 149.5 178 C150.98 178.74 151.92 180.25 153 181.5 C159.09 188.52 154.91 182.48 153 189.5 C152.43 191.6 157.52 189.1 159.5 190 C162.07 191.17 163.5 194 165.5 196Z M501.5 179 C497 181.17 490.43 181.13 488 185.5 C486.51 188.19 492.9 189.63 494 192.5 C494.76 194.47 487.54 192.44 488 194.5 C491.3 209.34 493.38 197.38 496.5 195 C497.7 194.08 499.79 195.41 501 194.5 C501.68 193.99 499.69 192.27 500.5 192 C501.62 191.63 504.08 193.68 504 192.5 C503.7 187.93 502.33 183.5 501.5 179Z M561.5 267 C564.8 263.7 563.71 265.64 561 257.5 C558.87 251.1 557.07 244.51 554 238.5 C549.37 229.44 541.94 221.88 538 212.5 C537.25 210.71 542.26 208.98 541 207.5 C539.14 205.3 534.89 207.6 532.5 206 C530.45 204.63 528.79 201.95 529 199.5 C529.34 195.49 533.21 192.45 534 188.5 C534.48 186.09 529.7 190.9 527.5 192 C520.79 195.35 521.95 187.58 517 195.5 C516.2 196.78 517.87 199.36 516.5 200 C501.61 206.95 513.88 196.54 508.5 195 C504.98 193.99 497.43 197.19 499 200.5 C511.32 226.51 506.9 188.77 503 213.5 C502.82 214.66 504.33 216.17 505.5 216 C506.54 215.85 505.46 213.17 506.5 213 C508.27 212.7 509.89 215.8 511.5 215 C513.02 214.24 510.82 210.24 512.5 210 C520.63 208.84 505.8 224.87 514.5 221 C527.89 215.05 509.74 206.33 518.5 207 C519.7 207.09 520.92 207.95 521.5 209 C522.68 211.12 521.53 217.41 523.5 216 C526.11 214.14 523.77 209.46 525 206.5 C525.55 205.18 528.26 202.59 528.5 204 C529.3 208.79 526.38 213.68 527 218.5 C527.27 220.62 530.37 221.46 531 223.5 C531.78 226.05 529.55 229.26 531 231.5 C532 233.05 534.91 231.08 536.5 232 C538.35 233.07 538.65 235.93 540.5 237 C542.09 237.92 545.7 235.68 546 237.5 C546.97 243.31 546.33 249.83 543.5 255 C542.49 256.85 539.1 254.37 537.5 253 C536.46 252.11 537.8 249.43 536.5 249 C535.36 248.62 535.69 251.83 534.5 252 C532.72 252.25 531.29 250.05 529.5 250 C524.97 249.88 520.26 249.95 516 251.5 C514.89 251.9 517.34 253.77 518.5 254 C523.41 254.98 528.65 253.74 533.5 255 C537.83 256.12 541.1 260.22 545.5 261 C547.41 261.34 548.68 257.32 550.5 258 C554.94 259.66 557.83 264 561.5 267Z M476 210.5 C473.83 208.67 472.25 205.71 469.5 205 C467.15 204.39 464.39 208.52 462.5 207 C459.78 204.83 462.09 199.33 459.5 197 C457.75 195.42 454.76 197.33 452.5 198 C448.35 199.22 453.67 200.83 453 202.5 C452.45 203.88 448.84 203.02 449 204.5 C449.71 210.93 457.51 204.43 458.5 205 C460.33 206.05 458.53 210.26 460.5 211 C462.59 211.79 464.27 207.8 466.5 208 C483.16 209.51 461.76 215.25 476 210.5Z M232 205.5 C231.17 205 230.47 203.95 229.5 204 C226.75 204.13 223.97 204.8 221.5 206 C217.39 208 211.92 209.34 210 213.5 C208.91 215.85 212.91 219.2 215.5 219 C220.7 218.6 225.46 215.3 229.5 212 C231.3 210.53 231.17 207.67 232 205.5Z M259 238.5 C259.5 239.67 259.42 241.33 260.5 242 C262.39 243.18 267.44 241.32 267 243.5 C266.35 246.77 259.65 246.23 259 249.5 C257.55 256.75 269.05 256.16 271.5 258 C272.6 258.82 271.2 261.57 272.5 262 C275.05 262.85 277.95 260.15 280.5 261 C281.62 261.37 279.52 263.42 280 264.5 C280.96 266.66 282.34 269.02 284.5 270 C285.46 270.44 284.53 267.42 285.5 267 C287.34 266.21 290.55 265.24 291.5 267 C292.6 269.04 288.77 271.19 289 273.5 C289.91 282.58 293.63 274.47 295.5 275 C297.31 275.52 297.64 278.67 299.5 279 C301.19 279.3 303.37 278.1 304 276.5 C305.09 273.71 303.23 270.4 304 267.5 C304.62 265.18 307.24 263.78 308 261.5 C308.58 259.75 304.12 262.87 302.5 262 C300.73 261.05 301.3 258.04 300 256.5 C299.32 255.7 297.63 256.34 297 255.5 C296.4 254.7 296.18 253.07 297 252.5 C298.83 251.23 301.34 250.46 303.5 251 C304.64 251.29 301.17 252.33 301 253.5 C300.78 255.07 300.93 258.22 302.5 258 C305.07 257.63 307.32 255 308 252.5 C310.53 243.21 301.57 248.62 299.5 248 C297.69 247.46 297.31 243.48 295.5 244 C293.35 244.61 294.73 250.15 292.5 250 C289.87 249.82 288.14 246.13 288 243.5 C287.91 241.84 291.56 242.11 292 240.5 C292.4 239.04 289.01 240 287.5 240 C285.74 240 281.36 236.07 280.5 236 C277.11 235.72 273.67 239.22 270.5 238 C259.11 233.62 279.68 220.25 259 238.5Z M515 252.5 C513.83 251.33 513.12 248.71 511.5 249 C488.18 253.2 479.08 259.57 463 276.5 C462.33 277.2 464.7 278.55 465.5 278 C468.42 276 469.55 271.97 472.5 270 C479.7 265.2 487.5 261.29 495.5 258 C501.74 255.43 508.5 254.33 515 252.5Z M328 259.5 C332.83 264.33 336.64 270.48 342.5 274 C346.26 276.26 351.12 275.86 355.5 276 C356.47 276.03 358.5 275.33 358 274.5 C356.42 271.86 352.93 270.89 351 268.5 C340.43 255.44 361.76 272.43 343.5 264 C328.62 257.13 344.86 256.53 328 259.5Z M364 301.5 C362.17 300.67 360.5 298.74 358.5 299 C351.04 299.97 354.02 308.35 344.5 302 C342.26 300.51 342.54 296.75 340.5 295 C339.7 294.31 338.42 296.51 337.5 296 C335.03 294.63 334.24 290.72 331.5 290 C329.9 289.58 328 291.85 328 293.5 C328 305.85 346.52 296.97 335.5 310 C334.72 310.92 333.7 307.88 332.5 308 C329.97 308.25 328 311.45 325.5 311 C323.4 310.62 323.55 306.59 321.5 306 C320.14 305.61 319.9 309.18 318.5 309 C316.38 308.74 315.61 304.67 313.5 305 C311.16 305.37 308.54 308.18 309 310.5 C310.1 315.99 312.67 322.17 317.5 325 C319.94 326.43 320.98 320.28 323.5 319 C336.63 312.37 350.5 307.33 364 301.5Z M621.5 319 C618.5 322.67 616.28 327.14 612.5 330 C610.47 331.54 607.1 330.06 605 331.5 C603.21 332.73 602.47 338.78 604.5 338 C613.49 334.54 619.06 330.45 623 321.5 C623.39 320.61 622 319.83 621.5 319Z M373 352.5 C368.17 346.67 363.99 340.22 358.5 335 C356.82 333.4 353.41 334.34 352 332.5 C351.02 331.22 354.22 322.66 348.5 323 C346.37 323.13 345.62 326.74 343.5 327 C342.1 327.18 341.84 324.45 340.5 324 C338.44 323.31 338.53 328.9 340 330.5 C342.59 333.33 346.7 334.37 349.5 337 C352.27 339.6 353.61 343.53 356.5 346 C360.71 349.61 365.34 352.97 370.5 355 C371.6 355.43 372.17 353.33 373 352.5Z M407 331.5 C403.4 323.09 408.94 333.22 396.5 327 C395.27 326.39 396.85 323.27 395.5 323 C391.71 322.24 386.87 321.91 384 324.5 C382.1 326.21 383.31 330.69 385.5 332 C387.42 333.15 389.31 328.56 391.5 329 C454.49 341.6 325.48 325.71 397.5 336 C402.63 336.73 398.24 330.47 398.5 330 C400.51 326.39 405.17 332.89 405.5 333 C406.17 333.22 406.5 332 407 331.5Z M544.5 340 C543.67 340.83 542.05 341.32 542 342.5 C541.87 345.57 541.94 349.22 544 351.5 C547.65 355.53 553.24 353.38 555 349.5 C555.31 348.82 554.55 348 554 347.5 C551.01 344.79 547.67 342.5 544.5 340Z M416.5 389 C421.33 383.5 426.91 378.57 431 372.5 C431.93 371.12 430.12 368.91 431 367.5 C432.03 365.85 435.51 366.38 436 364.5 C436.27 363.48 433.03 351.64 429 360.5 C428.5 361.59 431.11 362.3 431 363.5 C430.85 365.19 426.19 366.19 426 364.5 C425.87 363.31 428.34 362.65 428 361.5 C426.36 356 423.84 350.67 420.5 346 C419.33 344.36 417.7 349.51 418 351.5 C419.14 359.2 422.94 366.77 422 374.5 C419.25 397.21 409.39 376.2 416.5 389Z M391.5 375 C396.77 370.9 396.85 372.74 396 365.5 C395.56 361.8 395.71 357.81 394 354.5 C389.36 345.54 386.91 352.79 387 356.5 C387.12 361.87 387.73 367.28 389 372.5 C389.28 373.65 390.67 374.17 391.5 375Z" fill="rgb(65,86,90)" stroke="rgb(65,86,90)" stroke-width="1" fill-rule="evenodd"/>
<path d="M415 46.5 C418.17 47.67 422.11 47.61 424.5 50 C426.74 52.24 424.34 58.93 427.5 59 C434.59 59.16 441.99 55.51 447 50.5 C448.83 48.67 443.89 46 441.5 45 C438.41 43.7 434.84 43.72 431.5 44 C430.56 44.08 430.43 45.86 429.5 46 C424.72 46.72 419.83 46.33 415 46.5Z M425 63.5 C417.68 60.36 422.1 68.8 415.5 67 C406.78 64.62 424.95 61.86 409.5 58 C408.36 57.71 406.63 59.38 407 60.5 C407.75 62.74 413.37 63.58 412 65.5 C410.02 68.27 401.62 64.12 402 67.5 C402.6 72.89 408.78 76.34 413.5 79 C415 79.84 416.98 77.88 418 76.5 C420.93 72.55 422.67 67.83 425 63.5Z M394.5 73 C392.35 83.77 393.04 89.43 401.5 97 C402.4 97.8 403.42 99.52 404.5 99 C409.21 96.72 417 94.73 417 89.5 C417 85.07 408.07 87.62 404.5 85 C400.3 81.92 397.83 77 394.5 73Z M277 162.5 C278.33 162.5 280.12 163.51 281 162.5 C284.98 157.93 286.76 151.76 290.5 147 C291.23 146.07 289.07 149.78 290 150.5 C291.76 151.87 294.53 150.96 296.5 152 C297.56 152.56 297.36 154.62 298.5 155 C299.42 155.31 300.84 154.46 301 153.5 C301.26 151.94 297.94 149.26 299.5 149 C302.22 148.55 306.01 149.93 307 152.5 C307.7 154.31 303.21 153.98 302 155.5 C301.53 156.08 303.29 156.81 303 157.5 C302.16 159.46 297.79 160.75 299 162.5 C300.64 164.87 304.62 164 307.5 164 C313.47 164 298.57 155.16 308.5 158 C309.88 158.39 311.72 159.09 312 160.5 C312.56 163.28 309.19 170.65 311.5 169 C314.25 167.04 315.64 163.59 317 160.5 C317.54 159.28 317.57 157.7 317 156.5 C315.99 154.36 314.55 152.18 312.5 151 C306.54 147.58 300.34 143.62 293.5 143 C290.14 142.69 287.18 145.92 285 148.5 C281.53 152.6 279.67 157.83 277 162.5Z M229.5 146 C225.67 147.83 220.61 148.15 218 151.5 C216.35 153.62 218.02 157 219 159.5 C221.32 165.43 233 163.91 233 157.5 C233 153.49 230.67 149.83 229.5 146Z M425.5 225 C424.33 228.83 423.75 232.9 422 236.5 C420.54 239.5 417.24 241.41 416 244.5 C415.13 246.67 416.84 249.32 416 251.5 C415.07 253.93 410.52 254.94 411 257.5 C411.79 261.7 417.56 263.48 419 267.5 C419.56 269.07 414.67 270.49 416 271.5 C420.36 274.82 426.03 276.6 431.5 277 C448.21 278.21 458.22 274 459 254.5 C459.38 245.07 444.54 250.74 442.5 250 C437.98 248.36 444.26 239.38 434.5 244 C428.43 246.87 432.41 252.26 431 256.5 C430.73 257.31 428.63 257.84 428.5 257 C427.82 252.55 429.72 247.95 429 243.5 C428.81 242.31 426.42 242.63 426 241.5 C422.54 232.28 431.5 234.42 425.5 225Z M548.5 341 C549.33 340.17 550.77 339.66 551 338.5 C551.65 335.23 551.55 331.79 551 328.5 C550.85 327.57 549 327.44 549 326.5 C549 324.39 551 322.61 551 320.5 C551 320.05 546.43 310.28 551.5 311 C553.09 311.23 554.39 316.93 556 310.5 C556.54 308.34 551.25 307.62 549.5 309 C547.21 310.81 547.06 314.44 545 316.5 C538.93 322.57 533.01 318.69 538 329.5 C538.99 331.64 541.79 332.48 543 334.5 C547.59 342.14 539.34 337.95 548.5 341Z M558.5 357 C563 352.17 568.14 347.86 572 342.5 C573.42 340.53 574.13 337.92 574 335.5 C573.94 334.32 572.67 333.12 571.5 333 C568.96 332.75 565.52 332.45 564 334.5 C560.16 339.67 558.53 346.25 557 352.5 C556.62 354.04 558 355.5 558.5 357Z" fill="rgb(169,193,175)" stroke="rgb(169,193,175)" stroke-width="1" fill-rule="evenodd"/>
</svg>